PathFileType	4	(X/Y/Z)	C:/Users/beibeiliu/ov580/test_trc/User1\sequence.6_training_dense_right.trc
DataRate	CameraRate	NumFrames	NumMarkers	Units	OrigDataRate	OrigDataStartFrame	OrigNumFrames
120	120	18	19	mm	120	139	277
Frame#	Time	ThumbCMC			ThumbMCP			ThumbIP			ThumbTip			IndexMCP			IndexPIP			IndexTip			MiddleMCP			MiddlePIP			MiddleTip			RingMCP			RingPIP			RingTip			PinkyMCP			PinkyPIP			PinkyTip			BackHand1			BackHand2			BackHand3	
		X0	Y0	Z0	X1	Y1	Z1	X2	Y2	Z2	X3	Y3	Z3	X4	Y4	Z4	X5	Y5	Z5	X6	Y6	Z6	X7	Y7	Z7	X8	Y8	Z8	X9	Y9	Z9	X10	Y10	Z10	X11	Y11	Z11	X12	Y12	Z12	X13	Y13	Z13	X14	Y14	Z14	X15	Y15	Z15	X16	Y16	Z16	X17	Y17	Z17	X18	Y18	Z18	
138	1.15	133.107	49.9586	26.2438	154.609	30.4957	-0.487165	168.411	25.1902	-27.625	188.368	27.1757	-47.6836	134.332	68.9672	-57.7966	143.736	57.6998	-81.202	160.282	52.0329	-100.084	161.69	77.9597	-58.5156	184.604	50.8626	-50.9098	184.465	50.7859	-15.766	183.58	85.9489	-40.2127	201.191	59.0333	-22.5636	184.116	58.1037	6.79551	196.564	94.6015	-25.9126	201.041	71.3048	-9.76355	180.199	72.906	16.7559	149.111	117.373	-0.0492631	146.308	120.693	36.8089	124.289	92.9465	19.0861	
139	1.15833	133.674	54.4064	27.0865	153.388	35.3992	-1.86396	166.586	26.3025	-27.3677	184.743	30.1199	-44.1427	127.255	71.4228	-56.8338	135.856	64.7717	-82.6887	147.052	61.3713	-102.988	159.877	79.5015	-58.0242	184.004	51.9879	-52.0097	182.991	50.834	-15.537	181.563	84.6316	-40.4472	199.471	59.3698	-26.7783	185.475	58.6295	7.28923	199.244	95.307	-24.604	201.776	71.0028	-12.4121	180.15	71.0697	15.2863	150.939	117.032	1.20196	146.977	120.985	38.7982	124.958	96.2647	18.8955	
140	1.16667	130.693	58.1435	24.0944	147.455	32.2001	-1.51677	160.887	27.245	-24.7953	179.3	29.5015	-46.6096	125.937	78.7125	-53.5943	133.349	76.4116	-83.4259	137.372	72.4852	-107.449	159.095	82.1649	-56.2899	181.046	50.7052	-53.8407	181.974	49.5782	-15.0523	187.448	84.8868	-41.4255	196.832	54.9002	-27.5459	186.786	56.6172	7.49585	198.253	96.3969	-24.4695	201.772	68.6451	-14.0892	177.582	69.9652	14.3391	159.201	120.255	4.71669	152.353	121.011	37.0643	124.315	97.789	17.9763	
141	1.175	126.052	60.5083	26.976	141.839	39.3466	-4.41624	150.439	29.8205	-30.5494	170.662	31.2172	-47.3765	124.74	85.7704	-57.4494	131.829	86.4012	-80.9272	137.146	85.567	-106.712	163.011	83.8788	-56.3401	176.166	49.5546	-55.2159	176.964	46.2441	-16.6317	184.305	78.7213	-42.5629	195.033	51.1583	-26.1144	183.886	49.3056	2.51318	203.297	92.1278	-24.5561	199.892	63.0345	-10.9936	181.85	66.8428	13.427	160.368	119.77	1.02286	159.374	124.995	39.3848	131.554	106.172	17.2052	
142	1.18333	123.303	71.1425	21.2379	130.406	44.8992	-4.76734	139.878	37.7108	-32.8098	158.04	33.2102	-49.2743	130.637	97.2106	-56.8479	131.967	94.7704	-81.178	136.466	95.9594	-106.668	164.221	82.7776	-59.2482	174.486	50.8564	-56.1795	168.766	47.6612	-13.9388	187.267	74.7962	-43.9723	187.563	47.164	-32.2486	177.258	48.1178	4.70393	204.383	82.6855	-26.6033	195.812	57.2306	-16.02	178.088	63.3544	13.7003	170.136	119.938	3.94788	170.124	126.892	34.5725	133.942	113.702	15.2169	
143	1.19167	124.711	83.6354	19.7558	124.359	56.3744	-5.10173	130.66	46.0884	-35.248	147.318	39.195	-56.2066	134.495	106.314	-55.7266	136.675	105.273	-85.6756	145.746	105.909	-109.418	164.838	86.9476	-59.463	167.724	50.933	-58.5427	159.88	46.8233	-17.5117	185.449	77.3219	-44.0772	181.632	42.1391	-28.6742	170.091	45.1198	0.131194	205.196	78.1519	-27.2222	192.003	52.2309	-17.2751	169.213	65.4744	5.84071	177.9	121.487	-2.1222	176.177	123.38	38.9079	143.92	118.552	13.8361	
144	1.2	124.914	92.9814	22.9655	119.722	66.0009	-7.80225	125.176	56.5687	-34.5379	134.185	43.0646	-55.8918	141.714	115.099	-60.9836	147.901	113.341	-87.1919	149.509	112.197	-109.789	162.842	90.0388	-60.5064	158.772	53	-60.5716	151.768	46.8377	-23.6963	183.219	71.5579	-47.0377	174.131	43.5493	-35.7231	162.089	45.0654	-0.843778	203.942	68.7737	-29.4007	179.783	49.4328	-18.9552	164.75	64.5019	0.19293	186.846	116.485	-3.60608	184.149	122.425	37.517	152.455	126.88	11.1862	
145	1.20833	128.285	103.604	19.0947	119.59	78.7568	-11.2382	117.504	65.7748	-35.7565	123.566	51.8896	-57.4329	153.031	118.712	-62.5781	155.211	117.354	-85.8122	159.413	114.489	-112.132	166.48	91.4659	-63.1859	151.362	57.1722	-65.2504	144.013	50.2306	-26.4391	179.352	70.0051	-49.2567	160.343	42.4871	-37.3091	152.249	46.1982	-4.54864	197.472	63.0773	-31.4701	172.691	47.2994	-24.0223	159.019	63.6705	1.80726	197.294	110.792	-1.20864	193.576	117.128	33.9764	165.144	128.753	11.0122	
146	1.21667	134.393	113.707	14.1424	120.496	90.512	-9.14412	116.047	78.7627	-37.9601	116.216	62.7548	-55.3168	159.762	124.136	-65.4776	161.24	120.162	-85.6804	170.384	112.688	-114.456	167.222	91.1313	-64.2174	144.742	61.7084	-65.7445	135.44	58.5903	-25.3208	176.858	68.0901	-48.738	150.484	46.0599	-38.7861	141.052	49.8304	-8.67167	188.905	53.1911	-33.6951	161.132	47.753	-24.5409	152.995	70.1783	-3.00604	200.469	106.671	-6.10439	200.699	108.112	31.0384	173.779	127.711	11.5282	
147	1.225	137.839	120.109	14.8811	120.984	98.2232	-9.47846	115.25	88.0319	-35.8806	113.959	73.0233	-56.3398	167.243	124.541	-61.9196	168.819	122.018	-87.372	172.831	116.923	-114.491	168.494	91.2722	-67.3732	138.035	69.0359	-67.0226	127.842	68.332	-28.786	171.635	70.3049	-51.2268	144.894	51.4116	-43.3263	134.051	55.0424	-11.41	184.573	57.2174	-35.1567	156.692	48.4891	-28.0137	145.759	67.3082	-3.32474	203.031	101.266	-4.0889	202.797	104.313	28.6255	181.592	126.149	11.9009	
148	1.23333	142.083	123.001	15.8565	119.632	104.592	-12.0658	112.38	95.5427	-39.5518	108.545	80.0609	-57.9199	168.843	130.626	-64.2919	170.415	126.194	-90.5414	172.678	125.021	-115.449	165.792	97.3511	-68.3943	139.009	76.4616	-71.8048	127.381	72.1874	-31.3149	166.597	73.1998	-54.6565	139.958	55.9804	-46.4341	129.167	62.2639	-14.9364	177.462	54.9648	-39.4894	149.339	50.582	-28.1369	145.334	72.7654	-3.31605	203.026	96.7452	-7.2054	204.393	101.495	29.7545	186.66	126.604	11.2532	
149	1.24167	140.694	127.829	16.6273	120.829	109.584	-7.86301	109.184	101.464	-38.329	109.052	84.7473	-57.5116	172.085	130.637	-61.9038	172.124	128.011	-86.0236	176.404	124.454	-110.688	166.306	101.989	-66.9292	135.518	83.685	-71.4754	124.742	77.6261	-32.0875	164.503	77.2015	-54.7023	136.52	63.2487	-47.915	126.428	66.9123	-12.1641	172.263	57.7965	-40.3312	144.87	55.8037	-30.9876	141.841	75.5557	-4.32461	202.26	98.0192	-6.13858	205.448	98.557	29.1952	184.924	129.831	9.18917	
150	1.25	142.524	130.903	17.2214	120.038	113.977	-11.8596	110.016	105.562	-35.6709	103.101	91.6434	-59.0366	171.364	134.819	-61.4558	172.639	133.536	-85.5435	177.557	128.85	-115.363	164.029	101.257	-68.5968	131.795	84.884	-69.1965	123.093	83.035	-30.4644	163.737	77.7796	-54.0661	129.581	66.2984	-45.4259	122.557	71.864	-16.296	170.644	61.6986	-39.7721	142.866	58.0595	-33.7789	137.832	76.6246	-4.07668	200.954	98.7742	-8.55126	203.165	100.309	27.0291	186.292	129.193	8.15124	
151	1.25833	142.737	134.984	14.1294	116.903	119.125	-10.266	111.373	109.192	-38.0415	103.127	94.6926	-57.2933	171.642	136.034	-61.1115	175.162	129.617	-85.1288	181.589	125.408	-114.184	164.45	102.44	-66.5924	130.481	89.2609	-70.8322	118.201	89.3441	-33.7987	157.721	74.7236	-55.7515	126.399	68.115	-44.7164	121.244	73.7741	-15.8642	167.382	57.7392	-38.7312	137.031	61.7828	-30.4792	137.463	79.8927	-2.42272	198.41	98.0503	-7.4617	202.827	96.0835	31.2107	185.833	129.565	8.66501	
152	1.26667	145.582	135.416	15.0004	117.598	123.987	-9.40286	105.5	115.246	-40.2174	99.0405	100.881	-57.983	174.413	131.988	-61.4585	177.35	129.526	-87.287	182.607	122.981	-112.415	159.466	101.189	-70.6742	126.372	93.8395	-69.2427	118.492	90.8223	-30.9692	156.99	77.9141	-53.4799	124.984	74.9644	-47.8184	116.403	81.6141	-16.3544	161.355	62.1173	-37.3983	131.268	64.7072	-26.237	132.74	84.336	-4.4204	198.997	92.3128	-6.69267	197.22	99.2214	31.0808	185.265	130.321	10.0135	
153	1.275	146.934	140.866	16.0291	118.484	130.585	-11.7517	106.713	121.623	-40.831	95.5537	106.741	-57.5774	175.878	135.147	-65.4252	179.418	128.638	-88.9126	183.717	119.759	-112.515	160.982	105.631	-67.545	123.41	95.0811	-67.7295	115.611	100.74	-29.7943	150.223	80.7142	-55.5544	119.136	78.6888	-44.4737	112.933	85.391	-13.5382	154.803	62.6105	-37.5918	127.603	70.634	-26.7206	132.344	93.0996	-4.32587	195.334	91.6976	-8.48386	198.993	96.504	26.0953	187.389	128.087	9.03107	
154	1.28333	150.368	142.59	13.6401	121.022	136.093	-13.5877	108.074	126.726	-38.9517	95.9182	113.207	-58.7233	176.999	129.206	-69.0101	178.437	125.536	-93.553	178.921	113.907	-116.716	157.29	102.938	-69.3634	122.903	98.2935	-69.8468	113.507	105.127	-29.7628	149.056	80.3098	-53.2973	116.244	79.4618	-44.4157	107.803	93.4768	-15.1256	149.554	62.5316	-34.937	123.355	72.9632	-27.7841	123.737	95.6492	-4.19584	190.481	91.677	-7.05763	195.682	92.3503	27.9512	189.905	129.186	5.46872	
155	1.29167	153.1	144.185	13.1092	122.342	140.977	-13.9459	107.674	133.498	-40.1763	97.299	118.147	-56.5945	172.835	125.171	-70.117	167.746	117.146	-95.7949	164.034	110.653	-115.61	151.747	104.712	-71.1493	115.693	99.4055	-66.5846	109.931	107.718	-27.9676	143.914	78.7555	-50.7801	109.36	84.3293	-42.0355	104.675	98.1555	-11.1726	144.245	63.1945	-33.9415	117.04	77.9631	-23.8105	122.91	102.131	-2.50939	188.864	85.8891	-11.14	192.696	91.0061	26.593	189.059	124.916	4.8581	
